<svg version="1.1" xmlns="http://www.w3.org/2000/svg" xmlns:xlink="http://www.w3.org/1999/xlink" width="21.14286" height="29.85715" viewBox="0,0,21.14286,29.85715"><g transform="translate(-229.42857,-160.71428)"><g data-paper-data="{&quot;isPaintingLayer&quot;:true}" fill-rule="nonzero" stroke-linejoin="miter" stroke-miterlimit="10" stroke-dasharray="" stroke-dashoffset="0" style="mix-blend-mode: normal"><path d="M229.92857,180c0,-2.36449 2.16904,-11.36405 3.53819,-14.2404c1.32694,-2.78769 4.95936,-4.54532 6.53324,-4.54532c1.64037,0 5.61771,0.58908 6.98624,3.53952c1.27256,2.74354 -0.03929,7.81885 0.85033,8.91937c1.39776,1.72914 2.23486,3.93023 2.23486,6.32683c0,5.5623 -4.50913,10.07143 -10.07143,10.07143c-5.5623,0 -10.07143,-4.50913 -10.07143,-10.07143z" fill="#eaa65e" stroke="#000000" stroke-width="1" stroke-linecap="butt"/><path d="M234.825,171.05c0,-0.55229 0.44771,-1 1,-1c0.55229,0 1,0.44771 1,1c0,0.55229 -0.44771,1 -1,1c-0.55229,0 -1,-0.44771 -1,-1z" fill="#000000" stroke="none" stroke-width="0.5" stroke-linecap="butt"/><path d="M243.175,171.35c0,-0.55229 0.44771,-1 1,-1c0.55229,0 1,0.44771 1,1c0,0.55229 -0.44771,1 -1,1c-0.55229,0 -1,-0.44771 -1,-1z" fill="#000000" stroke="none" stroke-width="0.5" stroke-linecap="butt"/><path d="M238.875,172.55h2.4" fill="none" stroke="#000000" stroke-width="0.5" stroke-linecap="round"/></g></g></svg>